<?xml version="1.0" encoding="UTF-8"?>
<svg id="Layer_2" data-name="Layer 2" xmlns="http://www.w3.org/2000/svg" viewBox="0 0 500 500">
  <defs>
    <style>
      .cls-1 {
        fill: #e93e96;
      }
    </style>
  </defs>
  <g id="Layer_1-2" data-name="Layer 1">
    <path class="cls-1" d="M372.83,0H127.17C56.94,0,0,56.94,0,127.17v245.66c0,70.23,56.94,127.17,127.17,127.17h245.66c70.23,0,127.17-56.94,127.17-127.17V127.17C500,56.94,443.06,0,372.83,0ZM60,373.45V127.79c0-35.33,27.42-64.33,62.04-66.79-.01.64-.04,1.27-.04,1.92v102.23c0,17.92,6.73,32.88,20.07,44.51l148.93,128.08v76.26h-73v-94h-96v120.13s0,.08,0,.12c-34.6-2.48-62-31.48-62-66.79ZM439,372.79c0,31.93-22.29,58.69-52,65.37v-108.56c0-18.54-6.76-33.72-20.08-45.12l-148.92-127.49v-68.99h73v87h96V61.76c29.71,6.68,52,33.44,52,65.37v245.66Z"/>
  </g>
</svg>