<?xml version="1.0" encoding="UTF-8"?>
<svg id="Layer_2" data-name="Layer 2" xmlns="http://www.w3.org/2000/svg" viewBox="0 0 1371 500">
  <defs>
    <style>
      .cls-1 {
        fill: #e93e96;
      }

      .cls-2 {
        fill: #e2dcde;
      }
    </style>
  </defs>
  <g id="Layer_1-2" data-name="Layer 1">
    <g>
      <path class="cls-1" d="M372.83,0H127.17C56.94,0,0,56.94,0,127.17v245.66c0,70.23,56.94,127.17,127.17,127.17h245.66c70.23,0,127.17-56.94,127.17-127.17V127.17C500,56.94,443.06,0,372.83,0ZM60,373.45V127.79c0-35.33,27.42-64.33,62.04-66.79-.01.64-.04,1.27-.04,1.92v101.8c0,17.92,6.73,32.88,20.07,44.51l148.93,128.08v76.69h-73v-94h-96v120.13s0,.08,0,.12c-34.6-2.48-62-31.48-62-66.79ZM439,372.79c0,31.93-22.29,58.69-52,65.37v-109c0-18.54-6.76-33.72-20.08-45.12l-148.92-127.49v-68.55h73v87h96V61.76c29.71,6.68,52,33.44,52,65.37v245.66Z"/>
      <g>
        <path class="cls-2" d="M640,130h-35v73h30v39h-30v166h-46l1-165h-22v-40h22v-87.87c0-16.75,8.57-25.13,25.72-25.13h54.28v40Z"/>
        <path class="cls-2" d="M786,289h-46v-46.95l-36,.81v165.14h-47v-205h46v7.54c9.63-1.76,19.19-3.53,28.68-5.3,11.53-2.04,21.16-3.06,28.89-3.06,16.95,0,25.43,8.36,25.43,25.07v61.75Z"/>
        <path class="cls-2" d="M945,408h-45v-7.11c-10.62,1.63-21.23,3.25-31.84,4.88-13.88,2.03-24.43,3.05-31.64,3.05-17.01,0-25.52-8.33-25.52-25v-73.49c0-16.88,8.84-25.32,26.51-25.32h63.49v-47h-45v29h-42v-38.63c0-16.91,8.76-25.37,26.28-25.37h78.84c17.25,0,25.87,8.46,25.87,25.37v179.63ZM901,371.08v-55.08h-45v56.71l45-1.63Z"/>
        <path class="cls-2" d="M1205,408h-47v-166.46l-44,.81v165.65h-46v-166.46l-44,.81v165.65h-46v-205h47v7.51c10.85-1.76,21.63-3.52,32.34-5.28,13.15-2.03,24.07-3.04,32.75-3.04,10.71,0,17.63,3.04,20.75,9.13,11.39-1.76,22.78-3.58,34.17-5.48,15.05-2.44,26.57-3.65,34.58-3.65,16.95,0,25.42,8.32,25.42,24.97v180.85Z"/>
        <path class="cls-2" d="M1370,382.63c0,16.92-8.69,25.37-26.08,25.37h-79.85c-17.38,0-26.08-8.46-26.08-25.37v-154.26c0-16.91,8.69-25.37,26.08-25.37h79.85c17.38,0,26.08,8.46,26.08,25.37v74.72l-12.77,12.91h-75.23v58h44v-34h45l-1,42.63ZM1326,286v-49h-44v49h44Z"/>
      </g>
    </g>
  </g>
</svg>
